<?xml version="1.0" encoding="UTF-8"?>
<svg width="50px" height="50px" viewBox="0 0 50 50" version="1.1" xmlns="http://www.w3.org/2000/svg" xmlns:xlink="http://www.w3.org/1999/xlink">
    <!-- Generator: Sketch 56.3 (81716) - https://sketch.com -->
    <title>icon/apple</title>
    <desc>Created with Sketch.</desc>
    <g id="icon/apple" stroke="none" stroke-width="1" fill="none" fill-rule="evenodd">
        <path d="M44.6110008,38.5745661 C43.8760008,40.2725662 43.0060007,41.8355662 41.9980007,43.2725663 C40.6240006,45.2315664 39.4990006,46.5875664 38.6320005,47.3405665 C37.2880005,48.5765665 35.8480004,49.2095665 34.3060004,49.2455665 C33.1990003,49.2455665 31.8640003,48.9305665 30.3100002,48.2915665 C28.7509001,47.6555665 27.3181001,47.3405665 26.008,47.3405665 C24.634,47.3405665 23.1603999,47.6555665 21.5841999,48.2915665 C20.0055998,48.9305665 18.7338998,49.2635665 17.7615997,49.2965665 C16.2828997,49.3595665 14.8089996,48.7085665 13.3377995,47.3405665 C12.3987995,46.5215664 11.2242995,45.1175664 9.8172994,43.1285663 C8.30769934,41.0045662 7.06659929,38.5415661 6.09429925,35.733566 C5.05299921,32.7005659 4.53099919,29.7635658 4.53099919,26.9201656 C4.53099919,23.6630655 5.23479921,20.8538654 6.64449927,18.4997653 C7.75239931,16.6088652 9.22629937,15.1172652 11.0709994,14.0222651 C12.9156995,12.9272651 14.9088996,12.3692651 17.0553997,12.3335651 C18.2298997,12.3335651 19.7700998,12.6968651 21.6840999,13.4108651 C23.5926999,14.1272651 24.8182,14.4905652 25.3555,14.4905652 C25.7572,14.4905652 27.1186001,14.0657651 29.4265002,13.2188651 C31.6090003,12.4334651 33.4510003,12.1082651 34.9600004,12.2363651 C39.0490006,12.5663651 42.1210007,14.1782651 44.1640008,17.0822653 C40.5070006,19.2980653 38.6980005,22.4015655 38.7340005,26.3828656 C38.7670005,29.4839657 39.8920006,32.0645659 42.1030007,34.1135659 C43.1050007,35.064566 44.2240008,35.799566 45.4690008,36.321566 C45.1990008,37.1045661 44.9140008,37.8545661 44.6110008,38.5745661 L44.6110008,38.5745661 Z M35.2330004,1.67156464 C35.2330004,4.10219474 34.3450004,6.37166483 32.5750003,8.47226491 C30.4390002,10.969465 27.8554001,12.4124651 25.0537,12.1847651 C25.018,11.893165 24.9973,11.586265 24.9973,11.263765 C24.9973,8.93036493 26.0131,6.43316483 27.8170001,4.39136475 C28.7176001,3.35756471 29.8630002,2.49797468 31.2520002,1.81226465 C32.6380003,1.13678462 33.9490004,0.763224607 35.1820004,0.699264604 C35.2180004,1.02419462 35.2330004,1.34915463 35.2330004,1.67153464 L35.2330004,1.67156464 Z" id="Shape" fill="#FFFFFF" fill-rule="nonzero"></path>
    </g>
</svg>