<?xml version="1.0" encoding="UTF-8"?>
<svg width="32px" height="32px" viewBox="0 0 32 32" version="1.1" xmlns="http://www.w3.org/2000/svg" xmlns:xlink="http://www.w3.org/1999/xlink">
    <!-- Generator: Sketch 56.3 (81716) - https://sketch.com -->
    <title>icon/32</title>
    <desc>Created with Sketch.</desc>
    <g id="icon/32" stroke="none" stroke-width="1" fill="none" fill-rule="evenodd">
        <rect id="Rectangle" fill="#E42656" x="0" y="0" width="32" height="32" rx="2"></rect>
        <g id="zbay-logo" transform="translate(2.051273, 2.666662)">
            <path d="M24.4657935,3.2581587 C24.4657935,3.2581587 22.6005628,3.88790229 21.0705115,4.95867152 C20.5408705,4.64585101 19.9905115,4.35600485 19.4225115,4.09651767 C19.6276397,4.00646639 19.8395371,3.91641511 20.0670243,3.82718434 C22.2221012,2.98226126 24.0122551,1.95826126 24.8502038,1.44810742 C24.9827166,2.10205613 25.1697935,3.26369716 25.169384,4.59538947 C25.169384,5.3061587 25.1137935,6.06369716 24.9732807,6.81508177 C24.9880499,4.93405613 24.4657935,3.2581587 24.4657935,3.2581587 Z M22.7514551,20.0096664 C22.7514551,20.0096664 24.2540192,19.4028972 24.7654038,18.778692 C24.7654038,18.778692 22.6589423,22.9846407 18.6915576,24.4435125 C18.6915576,24.4435125 20.3658141,22.3569484 20.1338141,20.1647433 C20.1861217,20.1085382 20.2384294,20.0519228 20.2901217,19.9926407 C21.5869423,18.5060766 22.6977115,17.3198202 24.0267371,16.3729484 C23.9943269,17.2765382 23.7198653,18.5458715 22.7514551,20.0096664 Z M6.05674739,21.7253177 C6.05674739,21.7253177 7.46577303,21.45701 8.90372174,20.3630613 C10.488132,21.2580356 12.4329525,22.0619331 14.6770551,22.3651125 C14.0899782,24.3111638 13.1236192,25.1251125 13.1236192,25.1251125 C8.69428585,24.5876766 6.05674739,21.7253177 6.05674739,21.7253177 Z M3.20017303,3.2581587 C3.20017303,3.2581587 2.36242944,5.88913306 2.41473713,8.28297921 C2.30786533,7.16174844 2.21001918,5.71682536 2.21001918,4.18595357 C2.21001918,3.34144075 2.24242944,2.47190229 2.31648072,1.61733818 C3.0254038,1.79497921 4.53432687,2.2727228 6.38642944,3.43374844 C7.01658328,3.82820998 7.63566021,4.14513306 8.2174038,4.40010742 C7.90930123,4.61077408 7.22519867,5.09795357 6.37371149,5.82308177 C5.01145508,4.38205613 3.20017303,3.2581587 3.20017303,3.2581587 Z M2.61163969,9.84720485 L2.59399867,9.87120485 C2.58538328,9.80761511 2.5767679,9.74053818 2.56774226,9.66812793 C2.58128072,9.72884588 2.59646021,9.7879228 2.61163969,9.84720485 Z M25.5903884,12.1891536 C25.5903884,12.1891536 26.908132,12.853769 27.3752089,13.6176664 C27.3752089,13.6176664 26.7514141,13.5140766 25.8810551,13.8504869 C22.9575679,10.9723331 21.3130551,10.7421792 21.2465935,10.7343843 L21.1450551,10.7220766 L21.0640294,10.78341 C19.8712089,11.6863843 19.2515166,12.9868972 18.9233115,14.0519228 C18.5959269,15.1187946 18.5596192,15.9596151 18.5583884,15.973769 L18.5471064,16.242692 L18.5397217,16.26341 C18.5397217,16.26341 18.6433115,16.5083331 18.8119269,16.7965382 C18.2527474,16.9136664 17.8334653,17.277769 17.7951064,17.7413587 C17.7741833,17.9987946 17.874491,18.2447433 18.0578756,18.4488459 C16.852132,18.4271023 15.0209525,18.2004356 13.0734653,17.2564356 L12.7423884,17.0960254 C12.8166448,16.9294613 12.8552089,16.7062818 12.8400294,16.4121279 C13.4566448,16.3136664 14.133773,16.2547946 14.8740807,16.2547946 C15.4638243,16.2547946 16.0931576,16.2919228 16.7635166,16.3756151 L17.5204397,16.4701792 L16.9694653,15.9427946 C16.9665935,15.9397177 15.9501833,14.9665895 14.5686448,13.8328459 C13.1852602,12.698692 11.4447474,11.4049484 9.95654226,10.7536664 L9.85767046,10.7105895 L9.75838841,10.7518202 C9.75490123,10.7534613 8.404132,11.3157177 6.84126021,12.105051 C6.05992687,12.4997177 5.22567046,12.9509997 4.47797815,13.4193074 C4.22526021,13.5778715 3.98382431,13.7382818 3.756132,13.8991023 C3.03490123,13.5762305 2.57397815,13.4601279 2.57397815,13.4601279 C2.93541405,12.5868972 4.77418328,12.1401279 4.77418328,12.1401279 C4.68002944,11.5302818 3.42587559,11.3107946 3.42587559,11.3107946 C5.73377303,6.92289716 8.36351662,7.05171767 8.36351662,7.05171767 C8.41767046,6.39120485 7.716132,5.68925613 7.716132,5.68925613 C9.56474739,5.78751254 10.2209525,6.95982024 9.92536277,7.26094844 C10.4509012,6.72515357 10.1432089,5.49110229 10.1432089,5.49110229 C11.4835166,5.60146126 11.9444397,7.93397408 11.9444397,7.93397408 C12.2285423,7.40864075 12.140132,6.11120485 12.140132,6.11120485 C15.9311064,7.15346126 16.2818756,12.8256664 16.2818756,12.8256664 C16.8671064,13.8371536 17.9282346,15.289051 17.9282346,15.289051 C17.9282346,15.289051 18.2322346,13.9907946 18.3255679,12.8921279 C18.3255679,12.8921279 17.7229012,7.60166639 19.1347987,6.35120485 C19.1347987,6.35120485 19.0960294,7.79838434 19.5618756,8.28310229 C19.5618756,8.28310229 19.8012602,5.95982024 20.7758243,5.53807665 C20.7758243,5.53807665 20.5249525,6.74443562 20.7475166,7.15346126 C20.7475166,7.15346126 21.5315166,5.43264075 22.3052602,5.10628177 C22.3052602,5.10628177 22.0283371,6.42217921 22.1684397,6.76843562 C22.1684397,6.76843562 24.9743884,8.74238434 26.2943884,11.39141 C26.2943884,11.39141 25.6211576,11.5224869 25.5903884,12.1891536 Z M18.1380807,19.6171331 C17.4724397,19.6273895 16.8240294,19.5867741 16.8240294,19.5867741 L17.7341833,19.8655433 C17.7341833,19.8655433 17.7286448,19.9164151 17.7210551,19.9910818 C17.6470038,20.0401074 17.5690551,20.0852356 17.4779782,20.1237997 C17.2213628,20.2312869 16.8619782,20.3004151 16.3013628,20.3004151 C16.1520294,20.3004151 15.9887474,20.295492 15.8098756,20.2852356 C15.2646448,20.2532356 14.8435166,20.0680049 14.5007474,19.8031843 L14.4299782,19.7428766 C14.4884397,19.54821 14.5514141,19.3406202 14.5514141,19.3406202 L15.5011576,19.4222613 C15.5011576,19.4222613 14.3247474,19.0319023 13.6092602,18.6487228 C13.5553115,18.5373382 13.506491,18.4273895 13.4650551,18.3219536 C13.4092602,18.1791843 13.3653628,18.0468766 13.3300807,17.9283125 C15.2943884,18.7789792 17.0995166,18.9555946 18.258491,18.9557997 C18.4406448,18.9557997 18.6055679,18.9512869 18.7540807,18.9445177 C18.6689525,19.0277997 18.5907987,19.1092356 18.5192089,19.1873895 C18.3735679,19.3463638 18.2527474,19.4907741 18.1380807,19.6171331 Z M23.0960089,16.1919638 C21.7087269,17.7047843 19.7868807,19.6830407 19.1003166,20.357092 C17.6845217,21.7466305 15.9081115,21.5351433 15.9081115,21.5351433 C15.9081115,21.5351433 14.3959064,21.4664254 12.5963166,20.7880664 C11.2960089,20.2980151 9.668932,18.7339125 8.86667559,17.9043741 C9.09744482,17.7501177 9.372932,17.5837587 9.69641918,17.4176049 C10.435291,17.0381177 11.4184705,16.6615023 12.6560089,16.4436561 C12.4459576,16.7261177 12.0262653,17.1815023 11.3456499,17.4643741 C11.3456499,17.4643741 12.2732397,17.8016049 12.6685217,17.2266305 L12.7138551,17.52181 C12.716932,17.5384254 12.8303679,18.2906305 13.2629833,19.0809895 C13.4798038,19.4758613 13.7782653,19.88181 14.1911884,20.2024254 C14.6034961,20.5230407 15.1335474,20.7531946 15.7815474,20.7895023 C15.9686243,20.800169 16.1413423,20.8052972 16.3013423,20.8052972 C16.8350858,20.8052972 17.2326243,20.7478613 17.5557012,20.6344254 C17.7975474,20.5501177 17.9942653,20.4327843 18.1610346,20.2969895 C18.4127269,20.0924766 18.5967269,19.8567843 18.8166243,19.611451 C18.9993935,19.4067331 19.2075987,19.1909382 19.4970346,18.9644766 C20.1741628,18.9131946 20.7115987,18.5136049 20.7548807,17.9851946 C20.804932,17.3788356 20.1856499,16.8331946 19.371291,16.7638613 C19.1817525,16.6116561 19.019291,16.4295023 18.9513935,16.2247843 C19.8830858,16.1318613 20.7397012,16.0551433 21.5259576,16.0551433 C22.0830858,16.0551433 22.6034961,16.0965792 23.0960089,16.1919638 Z M8.77830636,12.9782202 C8.17297303,13.4309382 8.04866533,14.2883741 8.50138328,14.8939125 C8.95369098,15.4996561 9.81153713,15.6235536 10.4168705,15.1710407 C11.0224089,14.7187331 11.1467166,13.8608869 10.6939987,13.2555536 C10.241691,12.6500151 9.38384482,12.5257074 8.77830636,12.9782202 Z M10.9044602,15.8233484 C9.93851149,16.5451946 8.57051149,16.3472459 7.84907559,15.3812972 C7.12722944,14.4155536 7.3247679,13.0475536 8.29092174,12.3259125 C9.25687046,11.6042715 10.6248705,11.8020151 11.3467166,12.7679638 C12.0681525,13.7337074 11.8699987,15.1017074 10.9044602,15.8233484 Z M22.5373217,15.3393895 C23.1428602,14.8868766 23.2671679,14.0292356 22.8148602,13.4236972 C22.3621423,12.8183638 21.504091,12.6940561 20.8987576,13.146569 C20.2932192,13.5992869 20.1693217,14.4567228 20.6216294,15.0622613 C20.8062448,15.3090305 21.0579371,15.4741587 21.3321935,15.554569 C20.9114756,15.5607228 20.4772192,15.5841074 20.0275782,15.6197997 L19.9693217,15.5496459 C19.2474756,14.5839023 19.4456294,13.2159023 20.4115782,12.4942613 C21.3773217,11.7726202 22.7451166,11.9703638 23.4669628,12.9363125 C24.1071679,13.7931331 24.0220397,14.9656459 23.3205012,15.7233895 C22.9176294,15.6370305 22.5034756,15.5849279 22.0739371,15.5637997 C22.2370141,15.5201074 22.3943474,15.4464664 22.5373217,15.3393895 Z M9.29912687,13.7849516 C9.20763969,13.9423618 9.04702431,13.9605595 8.94097303,13.8255932 C8.83410123,13.6909301 8.82179354,13.4537532 8.91307559,13.296343 C9.00415251,13.1386295 9.1647679,13.1204318 9.27122944,13.2553982 C9.37810123,13.3906678 9.38999867,13.6272381 9.29912687,13.7849516 Z M21.0335064,13.5453181 C21.1247884,13.3876046 21.2849935,13.3694068 21.3916602,13.5043732 C21.4983269,13.6396429 21.5102243,13.8762131 21.4193525,14.0339267 C21.3280705,14.1913369 21.1676602,14.2095346 21.0611987,14.0745682 C20.954532,13.9399051 20.9424294,13.7027283 21.0335064,13.5453181 Z" id="face--negative" fill="#FFFFFF"></path>
            <path d="M25.8810551,13.8505074 C26.7514141,13.5140972 27.3752089,13.6176869 27.3752089,13.6176869 C26.908132,12.8537895 25.5899782,12.1891741 25.5899782,12.1891741 C25.6211576,11.5223023 26.2943884,11.3916356 26.2943884,11.3916356 C24.9743884,8.74240485 22.1684397,6.76845613 22.1684397,6.76845613 C22.0283371,6.42219972 22.3052602,5.10630229 22.3052602,5.10630229 C21.5315166,5.43266126 20.7475166,7.15348177 20.7475166,7.15348177 C20.5245423,6.74445613 20.7758243,5.53809716 20.7758243,5.53809716 C19.8012602,5.95984075 19.5618756,8.2831228 19.5618756,8.2831228 C19.0956192,7.79840485 19.1347987,6.35102024 19.1347987,6.35102024 C17.7229012,7.6016869 18.3255679,12.8921484 18.3255679,12.8921484 C18.2322346,13.9908151 17.9282346,15.2890715 17.9282346,15.2890715 C17.9282346,15.2890715 16.8671064,13.836969 16.2818756,12.8254818 C16.2818756,12.8254818 15.9311064,7.15327665 12.140132,6.11122536 C12.140132,6.11122536 12.2285423,7.40866126 11.9444397,7.93399459 C11.9444397,7.93399459 11.4835166,5.60148177 10.1432089,5.4911228 C10.1432089,5.4911228 10.4509012,6.72517408 9.92536277,7.26076383 C10.2209525,6.95984075 9.56474739,5.78732793 7.716132,5.68927665 C7.716132,5.68927665 8.41767046,6.39122536 8.36351662,7.05173818 C8.36351662,7.05173818 5.73377303,6.92291767 3.42587559,11.3108151 C3.42587559,11.3108151 4.68002944,11.5300972 4.77418328,12.1399433 C4.77418328,12.1399433 2.93541405,12.5869177 2.57397815,13.4601484 C2.57397815,13.4601484 3.03490123,13.576251 3.756132,13.8989177 C3.98382431,13.7380972 4.22526021,13.577892 4.47797815,13.4193279 C5.22567046,12.9510202 6.05992687,12.4997382 6.84167046,12.1050715 C8.404132,11.3157382 9.75490123,10.7534818 9.75838841,10.7518407 L9.85767046,10.7104049 L9.95654226,10.7536869 C11.4447474,11.404969 13.1852602,12.6987125 14.5686448,13.8328664 C15.9501833,14.96661 16.9665935,15.9397382 16.9698756,15.9428151 L17.5204397,16.4701997 L16.7635166,16.3756356 C16.0931576,16.2919433 15.4638243,16.2548151 14.8740807,16.2548151 C14.133773,16.2548151 13.4566448,16.3136869 12.8400294,16.4121484 C12.8552089,16.7063023 12.8166448,16.9294818 12.7423884,17.0960459 L13.0734653,17.2564561 C15.0209525,18.2004561 16.852132,18.4271228 18.0578756,18.4488664 C17.874491,18.2447638 17.7741833,17.9988151 17.7951064,17.7413792 C17.8334653,17.2777895 18.2527474,16.9136869 18.8119269,16.7965587 C18.6433115,16.5083536 18.5397217,16.2634305 18.5397217,16.2634305 L18.5471064,16.2427125 L18.5583884,15.9737895 C18.5596192,15.9596356 18.5959269,15.1188151 18.9233115,14.0519433 C19.2515166,12.9869177 19.8712089,11.6864049 21.0640294,10.7834305 L21.1454653,10.7220972 L21.2465935,10.73461 C21.3130551,10.7421997 22.9575679,10.9723536 25.8810551,13.8505074 Z M18.6915166,24.4435331 C22.6589012,22.9846613 24.7655679,18.7787125 24.7655679,18.7787125 C24.2539782,19.4029177 22.7514141,20.0094818 22.7514141,20.0094818 C23.7198243,18.545892 23.9940807,17.2763536 24.0266961,16.372969 C22.6976705,17.3198407 21.5869012,18.5060972 20.2900807,19.9926613 C20.2383884,20.0519433 20.1860807,20.1085587 20.133773,20.1647638 C20.365773,22.3567638 18.6915166,24.4435331 18.6915166,24.4435331 Z M21.4193115,13.7526613 C21.5101833,13.6459946 21.4982858,13.4859946 21.3916192,13.3945074 C21.2853628,13.3032254 21.1247474,13.3155331 21.0334653,13.4221997 C20.9423884,13.5286613 20.954491,13.6890715 21.0611576,13.7801484 C21.1674141,13.8714305 21.3280294,13.8591228 21.4193115,13.7526613 Z M22.8143884,13.4234305 C23.2671064,14.0291741 23.1432089,14.8868151 22.5376705,15.3393279 C22.3942858,15.4464049 22.2369525,15.5200459 22.0738756,15.5639433 C22.5034141,15.5848664 22.9173628,15.6367638 23.3206448,15.7233279 C24.0219782,14.9655843 24.1073115,13.7930715 23.4669012,12.936251 C22.7450551,11.9703023 21.3772602,11.7723536 20.4115166,12.4941997 C19.4455679,13.2160459 19.2478243,14.5840459 19.9694653,15.5497895 L20.0275166,15.6197382 C20.4771576,15.5840459 20.9114141,15.5606613 21.332132,15.5547125 C21.0578756,15.4743023 20.8061833,15.308969 20.6215679,15.0621997 C20.1692602,14.4568664 20.2931576,13.5992254 20.8986961,13.1465074 C21.5040294,12.6939946 22.3620807,12.8180972 22.8143884,13.4234305 Z M17.7341833,19.8654818 L16.8240294,19.5867125 C16.8240294,19.5867125 17.4724397,19.6275331 18.1376705,19.6170715 C18.2527474,19.4907125 18.3735679,19.3463023 18.5192089,19.1875331 C18.5907987,19.1093792 18.6689525,19.0279433 18.7540807,18.9444561 C18.6055679,18.9512254 18.4406448,18.9557382 18.2580807,18.9557382 C17.0993115,18.9555331 15.2943884,18.7789177 13.3298756,17.928251 C13.3653628,18.0468151 13.4092602,18.1793279 13.4650551,18.321892 C13.506491,18.4273279 13.5553115,18.5374818 13.6092602,18.6488664 C14.3247474,19.0320459 15.5009525,19.4221997 15.5009525,19.4221997 L14.5514141,19.3405587 C14.5514141,19.3405587 14.4884397,19.5481484 14.4299782,19.7430202 L14.5009525,19.8033279 C14.8435166,20.0679433 15.2642346,20.2531741 15.8098756,20.2853792 C15.9887474,20.2954305 16.1520294,20.3003536 16.3013628,20.3003536 C16.8619782,20.3003536 17.2213628,20.2312254 17.4779782,20.1235331 C17.5690551,20.0853792 17.6470038,20.0400459 17.7210551,19.9912254 C17.7286448,19.9165587 17.7341833,19.8654818 17.7341833,19.8654818 Z M15.908132,21.5350202 C15.908132,21.5350202 17.6845423,21.7467125 19.100132,20.356969 C19.7869012,19.6829177 21.7087474,17.7046613 23.0960294,16.1920459 C22.6033115,16.0966613 22.0829012,16.0552254 21.5259782,16.0552254 C20.7397217,16.0552254 19.8831064,16.1317382 18.9514141,16.2246613 C19.0193115,16.4293792 19.181773,16.6115331 19.3713115,16.7637382 C20.1856705,16.8332766 20.8049525,17.3789177 20.7549012,17.9850715 C20.7112089,18.5136869 20.1741833,18.9132766 19.4970551,18.9641484 C19.2076192,19.1910202 18.9994141,19.4068151 18.8166448,19.6113279 C18.5967474,19.8568664 18.4127474,20.0925587 18.1610551,20.2970715 C17.9942858,20.4326613 17.7975679,20.5501997 17.5557217,20.6345074 C17.2326448,20.7479433 16.8349012,20.8051741 16.3013628,20.8051741 C16.1413628,20.8051741 15.9686448,20.8000459 15.7815679,20.7893792 C15.1333628,20.7532766 14.6033115,20.5229177 14.1912089,20.2025074 C13.7782858,19.8816869 13.4798243,19.4759433 13.2630038,19.0810715 C12.8303884,18.2907125 12.7169525,17.5385074 12.7138756,17.5216869 L12.6685423,17.2267125 C12.2732602,17.8012766 11.3456705,17.4644561 11.3456705,17.4644561 C12.0262858,17.1815843 12.4459782,16.7261997 12.6560294,16.4439433 C11.418491,16.6615843 10.4353115,17.0379946 9.69643969,17.4174818 C9.37274739,17.5838407 9.09746533,17.7501997 8.8666961,17.904251 C9.66895251,18.7339946 11.2958243,20.2980972 12.5963371,20.7879433 C14.3955166,21.4663023 15.908132,21.5350202 15.908132,21.5350202 Z M8.29090123,12.3259946 C7.32515764,13.0476356 7.12720892,14.4156356 7.84905508,15.3813792 C8.57049098,16.3471228 9.93849098,16.5452766 10.9044397,15.8234305 C11.8703884,15.1017895 12.068132,13.7337895 11.3469012,12.7678407 C10.6248499,11.801892 9.25684995,11.6041484 8.29090123,12.3259946 Z M13.1237217,25.1251741 C13.1237217,25.1251741 14.0900807,24.3110202 14.6771576,22.364969 C12.4328499,22.0617895 10.4880294,21.257892 8.90361918,20.3631228 C7.46587559,21.4570715 6.05664482,21.7251741 6.05664482,21.7251741 C6.05664482,21.7251741 8.69438841,24.5875331 13.1237217,25.1251741 Z M2.61172174,9.84722536 C2.59633713,9.78794331 2.58115764,9.72886639 2.56782431,9.66814844 C2.57684995,9.7405587 2.58546533,9.80763562 2.59408072,9.87122536 L2.61172174,9.84722536 Z M2.21008072,4.18609716 C2.21008072,5.71696895 2.30792687,7.1616869 2.41520892,8.28291767 C2.36249098,5.88907152 3.20023457,3.25809716 3.20023457,3.25809716 C3.20023457,3.25809716 5.01192687,4.38199459 6.3735679,5.82322536 C7.22526021,5.09809716 7.90936277,4.61071254 8.21746533,4.40004588 C7.636132,4.14507152 7.01664482,3.82835357 6.38649098,3.4336869 C4.53438841,2.27286639 3.02546533,1.79491767 2.31654226,1.61727665 C2.24249098,2.47204588 2.21008072,3.34137921 2.21008072,4.18609716 Z M20.0669012,3.82732793 C19.8392089,3.9165587 19.6277217,4.00640485 19.4225935,4.09666126 C19.9899782,4.35594331 20.5409525,4.64578947 21.0705935,4.95860998 C22.6006448,3.88763562 24.4658756,3.25809716 24.4658756,3.25809716 C24.4658756,3.25809716 24.9879269,4.93419972 24.9731576,6.81522536 C25.1138756,6.06363562 25.1696705,5.30630229 25.1692625,4.59532793 C25.1696705,3.26384075 24.9825935,2.10219972 24.8502858,1.44825101 C24.0123371,1.95819972 22.2221833,2.98219972 20.0669012,3.82732793 Z M27.5077217,12.1403536 C28.5981833,12.9307125 28.6923371,14.2876356 28.6923371,14.2876356 C27.8455679,14.5087638 27.0978756,14.7604561 26.4197217,15.0453792 C25.6459782,21.1936869 20.402491,25.9501997 14.0443371,25.9501997 C7.64002944,25.9501997 2.36577303,21.1245587 1.65172174,14.9116356 C0.868952514,14.8993279 0.137260206,15.0527638 0.137260206,15.0527638 C0.473260206,13.6119433 1.07243969,12.2771741 1.79982431,11.072251 C1.82218328,10.9581997 1.84720892,10.844969 1.87243969,10.7317382 L1.88023457,10.7325587 L1.8535679,10.6414818 C1.85172174,10.6283536 1.36864482,7.63758434 1.36823457,4.18609716 C1.36823457,3.16435357 1.4106961,2.10199459 1.52167046,1.06199459 C1.53397815,0.948763826 1.59202944,0.844148441 1.68208072,0.774404851 C1.772132,0.704456133 1.88802944,0.673892031 2.00105508,0.690302287 C2.04433713,0.69686639 4.09192687,1.00250742 6.83346533,2.72066126 C7.60884995,3.20722536 8.37008072,3.56866126 9.05643969,3.83737921 C9.36454226,3.65604588 9.67674739,3.50794331 9.98874739,3.38671254 C9.52043969,3.13809716 9.03141405,2.97973818 9.03141405,2.97973818 C10.0751064,2.8365587 10.9510038,2.79471254 11.6874141,2.82937921 C10.7830038,2.40353306 9.59243969,2.04702024 8.03059354,1.81358434 C8.03059354,1.81358434 11.0318243,0.995738185 14.1025935,1.14917408 C13.7901833,0.789584338 13.4486448,0.416456133 13.0718243,0.0295843384 C13.0718243,0.0295843384 17.7153115,0.0677381845 20.6956192,2.65604588 C23.0431064,1.63348177 24.7842346,0.499943313 24.8917217,0.428968954 L24.8966448,0.425481774 C25.0092602,0.350815108 25.1507987,0.334815108 25.2771576,0.382609979 C25.4037217,0.429994595 25.4999269,0.535430492 25.5352089,0.665686902 C25.5405423,0.688045877 26.0102858,2.40907152 26.0111064,4.59532793 C26.0106961,5.68209716 25.8945935,6.88537921 25.5380807,8.05502024 C25.5060807,8.15963562 25.469773,8.26384075 25.4336705,8.36784075 C27.0055679,9.93830229 27.9990038,11.3873279 28.156132,11.9947125 C27.5419782,11.9483536 27.5077217,12.1403536 27.5077217,12.1403536 Z M8.91311662,13.253851 C8.82183457,13.3603125 8.83414226,13.5207228 8.94101405,13.6117997 C9.04706533,13.7030818 9.20768072,13.6907741 9.29875764,13.5843125 C9.39003969,13.4776459 9.377732,13.3176459 9.27127046,13.2261587 C9.16480892,13.1348766 9.00398841,13.1471843 8.91311662,13.253851 Z M10.4169115,15.1709792 C9.81157815,15.623492 8.953732,15.4995946 8.50142431,14.893851 C8.04870636,14.2883125 8.17301405,13.4308766 8.77834739,12.9781587 C9.38388585,12.5256459 10.241732,12.6499536 10.6940397,13.255492 C11.1467576,13.8608254 11.0224499,14.7184664 10.4169115,15.1709792 Z" id="face--positive" fill="#521C74"></path>
        </g>
    </g>
</svg>