<svg width="184" height="184" viewBox="0 0 184 184" fill="none" xmlns="http://www.w3.org/2000/svg">
<circle cx="80" cy="97" r="49" fill="#F0F0F0"/>
<circle cx="45.5" cy="29.5" r="7.5" fill="#F0F0F0"/>
<circle cx="141" cy="151" r="5" fill="#F0F0F0"/>
<circle cx="126" cy="27" r="5" fill="#F0F0F0"/>
<path fill-rule="evenodd" clip-rule="evenodd" d="M134.235 93.5433C151.039 95.5419 166.282 83.5396 168.28 66.7355C170.279 49.9313 158.277 34.6887 141.472 32.6901C124.668 30.6915 109.426 42.6937 107.427 59.4979C105.429 76.302 117.431 91.5447 134.235 93.5433ZM118.961 67.8078C122.289 72.0359 127.967 77.1364 134.474 78.2733C141.141 79.4379 148.852 76.493 155.077 72.1065C155.556 71.7689 155.651 71.1055 155.298 70.6377C154.945 70.1699 154.279 70.0765 153.792 70.4028C148.162 74.176 141.336 74.9805 135.113 73.8935C129.021 72.8293 123.673 69.9825 120.7 66.5475C120.316 66.1044 119.653 65.9982 119.178 66.3418C118.703 66.6853 118.598 67.3474 118.961 67.8078Z" fill="#521C74"/>
<path fill-rule="evenodd" clip-rule="evenodd" d="M85.0712 65.3933C95.4319 65.3933 103.831 56.9944 103.831 46.6337C103.831 36.273 95.4319 27.874 85.0712 27.874C74.7105 27.874 66.3115 36.273 66.3115 46.6337C66.3115 56.9944 74.7105 65.3933 85.0712 65.3933ZM73.9242 50.8522C76.2532 53.1821 80.0739 55.8724 84.1126 56.093C88.2498 56.319 92.7247 53.971 96.1921 50.8541C96.4589 50.6142 96.4685 50.2041 96.2203 49.9452C95.9722 49.6863 95.5604 49.6777 95.2879 49.9113C92.1377 52.6123 88.0459 53.595 84.1842 53.3841C80.4038 53.1776 76.9463 51.8335 74.8903 49.9602C74.625 49.7186 74.2142 49.702 73.9505 49.9452C73.6867 50.1884 73.6707 50.5985 73.9242 50.8522Z" fill="#E42656"/>
<path fill-rule="evenodd" clip-rule="evenodd" d="M28.8946 118.22C39.3298 119.566 48.8795 112.197 50.2246 101.761C51.5696 91.3263 44.2007 81.7766 33.7655 80.4315C23.3304 79.0865 13.7807 86.4554 12.4356 96.8905C11.0906 107.326 18.4595 116.875 28.8946 118.22ZM19.5554 102.127C21.5986 104.776 25.0975 107.982 29.1366 108.728C33.2741 109.493 38.086 107.709 41.983 105.02C42.2829 104.813 42.3458 104.401 42.1295 104.108C41.9131 103.815 41.4995 103.753 41.1947 103.953C37.6712 106.264 33.4224 106.723 29.5604 106.009C25.7796 105.31 22.4718 103.508 20.6442 101.354C20.4084 101.076 19.9968 101.006 19.6995 101.217C19.4023 101.428 19.3329 101.839 19.5554 102.127Z" fill="#E42656"/>
<path fill-rule="evenodd" clip-rule="evenodd" d="M147.244 141.171C157.343 138.857 163.654 128.794 161.34 118.695C159.027 108.596 148.964 102.285 138.865 104.599C128.766 106.912 122.455 116.975 124.768 127.074C127.082 137.173 137.145 143.484 147.244 141.171ZM133.13 129.486C135.921 131.237 140.246 133.006 144.232 132.319C148.315 131.616 152.153 128.328 154.836 124.515C155.043 124.222 154.961 123.82 154.661 123.623C154.361 123.426 153.958 123.51 153.744 123.798C151.277 127.135 147.508 129.006 143.697 129.663C139.966 130.306 136.295 129.768 133.873 128.401C133.56 128.225 133.156 128.3 132.953 128.596C132.751 128.892 132.827 129.296 133.13 129.486Z" fill="#E42656"/>
<path fill-rule="evenodd" clip-rule="evenodd" d="M90.6422 134.783C107.78 132.396 119.738 116.569 117.352 99.4316C114.966 82.2939 99.1389 70.3354 82.0012 72.7215C64.8635 75.1077 52.905 90.9348 55.2912 108.073C57.6773 125.21 73.5045 137.169 90.6422 134.783ZM68.8543 113.297C73.2432 116.615 80.1828 120.185 86.914 119.619C93.8094 119.04 100.671 114.126 105.688 108.172C106.074 107.714 105.996 107.033 105.526 106.662C105.056 106.291 104.372 106.371 103.976 106.82C99.3867 112.014 92.8448 114.582 86.4086 115.122C80.1077 115.651 74.0792 114.224 70.2468 111.599C69.7525 111.26 69.0692 111.328 68.6888 111.791C68.3085 112.254 68.3765 112.936 68.8543 113.297Z" fill="#67BFD3"/>
<path fill-rule="evenodd" clip-rule="evenodd" d="M110.227 163.83C117.93 165.581 125.594 160.755 127.345 153.052C129.095 145.349 124.269 137.685 116.566 135.934C108.863 134.184 101.199 139.009 99.4486 146.713C97.6981 154.416 102.524 162.08 110.227 163.83ZM104.395 151.136C105.733 153.261 108.119 155.907 111.085 156.754C114.123 157.621 117.846 156.631 120.951 154.899C121.19 154.766 121.266 154.463 121.126 154.228C120.985 153.994 120.68 153.918 120.438 154.046C117.64 155.522 114.431 155.561 111.596 154.752C108.82 153.959 106.476 152.376 105.264 150.636C105.108 150.411 104.805 150.329 104.568 150.466C104.331 150.602 104.249 150.904 104.395 151.136Z" fill="#9BD174"/>
<path fill-rule="evenodd" clip-rule="evenodd" d="M50.381 72.4612C57.5127 72.4612 63.2942 66.6797 63.2942 59.548C63.2942 52.4162 57.5127 46.6348 50.381 46.6348C43.2492 46.6348 37.4678 52.4162 37.4678 59.548C37.4678 66.6797 43.2492 72.4612 50.381 72.4612ZM42.7082 62.4517C44.3113 64.0555 46.9414 65.9074 49.7214 66.0592C52.5692 66.2148 55.6495 64.5986 58.0363 62.453C58.22 62.2879 58.2266 62.0056 58.0558 61.8274C57.8849 61.6492 57.6015 61.6432 57.4139 61.804C55.2454 63.6633 52.4289 64.3397 49.7707 64.1945C47.1684 64.0524 44.7885 63.1272 43.3732 61.8377C43.1906 61.6714 42.9079 61.66 42.7263 61.8274C42.5447 61.9948 42.5337 62.2771 42.7082 62.4517Z" fill="#9BD174"/>
<path fill-rule="evenodd" clip-rule="evenodd" d="M50.381 152.016C57.5127 152.016 63.2942 146.234 63.2942 139.103C63.2942 131.971 57.5127 126.189 50.381 126.189C43.2492 126.189 37.4678 131.971 37.4678 139.103C37.4678 146.234 43.2492 152.016 50.381 152.016ZM42.7082 142.006C44.3113 143.61 46.9414 145.462 49.7214 145.614C52.5692 145.769 55.6495 144.153 58.0363 142.008C58.22 141.843 58.2266 141.56 58.0558 141.382C57.8849 141.204 57.6015 141.198 57.4139 141.359C55.2454 143.218 52.4289 143.894 49.7707 143.749C47.1684 143.607 44.7885 142.682 43.3732 141.392C43.1906 141.226 42.9079 141.215 42.7263 141.382C42.5447 141.549 42.5337 141.832 42.7082 142.006Z" fill="#521C74"/>
<circle cx="104" cy="23" r="6" fill="#67BFD3"/>
<circle cx="79" cy="150" r="6" fill="#9BD174"/>
<circle cx="168" cy="97" r="6" fill="#67BFD3"/>
<circle cx="24.5" cy="68.5" r="4.5" fill="#B3B3B3"/>
<circle cx="126" cy="102" r="5" fill="#B3B3B3"/>
</svg>
