<svg width="24" height="24" viewBox="0 0 24 24" fill="none" xmlns="http://www.w3.org/2000/svg">
<path d="M2.5 21V10.8427C2.5 10.446 2.93987 10.2073 3.2725 10.4235L11.1825 15.565C11.6796 15.8881 12.3204 15.8881 12.8175 15.565L20.7275 10.4235C21.0601 10.2073 21.5 10.446 21.5 10.8427V21C21.5 21.2761 21.2761 21.5 21 21.5H12H3C2.72386 21.5 2.5 21.2761 2.5 21Z" stroke="white"/>
<path d="M6 2.5H18C18.2761 2.5 18.5 2.72386 18.5 3V11.6147C18.5 11.7849 18.4134 11.9434 18.2702 12.0354L12.2702 15.8885C12.1056 15.9942 11.8944 15.9942 11.7298 15.8885L5.72982 12.0354C5.58659 11.9434 5.5 11.7849 5.5 11.6147V3C5.5 2.72386 5.72386 2.5 6 2.5Z" stroke="white"/>
<path fill-rule="evenodd" clip-rule="evenodd" d="M9.10153 10.46C9.07808 10.4915 9.05722 10.5214 9.04108 10.5483C9.01366 10.5942 9 10.6595 9 10.7445V11.745C9 11.817 9.0257 11.8774 9.07722 11.9265C9.12884 11.9755 9.1923 12 9.26801 12H14.732C14.8075 12 14.8712 11.9772 14.9226 11.9313C14.9742 11.8857 15 11.8269 15 11.7548V10.715C15 10.6432 14.9742 10.5826 14.9226 10.5336C14.8712 10.4846 14.8075 10.46 14.732 10.46H9.10153Z" fill="white"/>
<path fill-rule="evenodd" clip-rule="evenodd" d="M14.7726 6.54C14.8301 6.45573 14.8605 6.36328 14.8605 6.26181V5.25839C14.8605 5.18553 14.8349 5.12417 14.7838 5.07452C14.7328 5.02488 14.6697 5 14.5949 5H9.39489C9.31986 5 9.25858 5.02488 9.21094 5.07452C9.1633 5.12417 9.13953 5.18553 9.13953 5.25839V6.29166C9.13953 6.35789 9.16511 6.41583 9.21616 6.46548C9.26721 6.51512 9.32668 6.54 9.39489 6.54H14.7726Z" fill="white"/>
<path fill-rule="evenodd" clip-rule="evenodd" d="M14.6775 6.73628C14.694 6.71807 14.7075 6.69908 14.7209 6.68H12.4674L9.32981 10.2543C9.31077 10.2775 9.29461 10.2989 9.27907 10.32H11.6484L14.6775 6.73628Z" fill="white"/>
</svg>
