<?xml version="1.0" encoding="UTF-8"?>
<svg width="256px" height="256px" viewBox="0 0 256 256" version="1.1" xmlns="http://www.w3.org/2000/svg" xmlns:xlink="http://www.w3.org/1999/xlink">
    <!-- Generator: Sketch 56.3 (81716) - https://sketch.com -->
    <title>icon/256</title>
    <desc>Created with Sketch.</desc>
    <defs>
        <rect id="path-1" x="0" y="0" width="256" height="256" rx="32.8205128"></rect>
    </defs>
    <g id="icon/256" stroke="none" stroke-width="1" fill="none" fill-rule="evenodd">
        <g id="ray-container">
            <mask id="mask-2" fill="white">
                <use xlink:href="#path-1"></use>
            </mask>
            <use id="mask-color" fill="#521C74" xlink:href="#path-1"></use>
            <polygon id="ray-" fill="#67BFD3" mask="url(#mask-2)" points="129.641026 86.7556592 113.003468 -31.1794872 121.368244 87.6202863 80.4540939 -24.2963767 113.453223 90.1802609 50.0512821 -10.8251463 106.250316 94.3169086 23.1272633 8.63744179 100.066173 99.8606945 0.864350314 33.2471046 95.1767825 106.557317 -15.776615 61.9289919 91.7899849 114.118566 -26.0596684 93.4217651 90.0659209 122.218936 -29.5384615 126.358974 90.0659209 130.499013 -26.0596684 159.292793 91.7899849 138.595992 -15.776615 190.788957 95.1767825 146.157241 0.864350314 219.467453 100.066173 152.857254 23.1272633 244.077116 106.250316 158.397649 50.0512821 263.543095 113.453223 162.537688 80.4540939 277.010935 121.368244 165.094272 113.003468 283.897436 129.641026 165.958899 146.278584 283.897436 137.913807 165.094272 178.831365 277.010935 145.825421 162.537688 209.234176 263.543095 153.031735 158.397649 236.154788 244.077116 159.215878 152.857254 258.421108 219.467453 164.101862 146.157241 275.058666 190.788957 167.488659 138.595992 285.345127 159.292793 169.21613 130.499013 288.820513 126.358974 169.21613 122.218936 285.345127 93.4217651 167.488659 114.118566 275.058666 61.9289919 164.101862 106.557317 258.421108 33.2471046 159.215878 99.8606945 236.154788 8.63744179 153.031735 94.3169086 209.234176 -10.8251463 145.825421 90.1802609 178.831365 -24.2963767 137.913807 87.6202863 146.278584 -31.1794872"></polygon>
            <polygon id="ray-" fill="#E42656" mask="url(#mask-2)" points="133.816384 86.781084 162.887787 -29.3361858 141.998008 88.5114213 194.714885 -19.0488048 149.639725 91.8981988 223.697431 -2.40266245 156.409915 96.7867834 248.566112 19.8663607 162.009579 102.974569 268.237847 46.7917907 166.189541 110.178516 281.851488 77.1974281 168.779159 118.089552 288.817681 109.747106 169.652613 126.36561 288.820513 143.027087 168.779648 134.640371 281.872931 175.575846 166.198516 142.551264 268.265845 205.974666 162.01454 149.753018 248.604727 232.892588 156.422177 155.937105 223.743822 255.154886 149.653914 160.826385 194.770921 271.789438 142.011116 164.209173 162.948202 282.065071 133.829963 165.935669 129.66938 285.538462 125.466025 165.933476 96.3942644 282.054134 117.284401 164.203139 64.5709312 271.763722 109.638919 160.819393 35.5880271 255.120968 102.872494 155.927777 10.716297 232.8482 97.2724726 149.74338 -8.95203125 205.923126 93.0894608 142.535687 -22.5694366 175.520521 90.4998421 134.624651 -29.5318649 142.967811 89.6294387 126.352339 -29.5384615 109.690861 90.5024031 118.077578 -22.5871145 77.1390713 93.0804851 110.16294 -8.98379331 46.7432823 97.2644616 102.961185 10.6810894 19.8223288 102.859874 96.7808437 35.5385871 -2.44032534 109.628495 91.888175 64.514537 -19.0711322 117.267528 88.5084188 96.3376141 -29.3501539 125.452445 86.7788909 129.612671 -32.8205128"></polygon>
        </g>
        <g id="zbay-logo" transform="translate(16.000000, 21.000000)">
            <path d="M194.726348,26.0652696 C194.726348,26.0652696 179.804502,31.1032183 167.564092,39.6693721 C163.326964,37.166808 158.924092,34.8480388 154.380092,32.7721414 C156.021118,32.0517311 157.716297,31.3313209 159.536194,30.6174747 C176.77681,23.8580901 191.098041,15.6660901 197.80163,11.5848593 C198.861733,16.8164491 200.358348,26.1095773 200.355072,36.7631157 C200.355072,42.4492696 199.910348,48.5095773 198.786246,54.5206542 C198.9044,39.4724491 194.726348,26.0652696 194.726348,26.0652696 Z M181.011641,160.077331 C181.011641,160.077331 193.032153,155.223177 197.12323,150.229536 C197.12323,150.229536 180.271538,183.877126 148.532461,195.5481 C148.532461,195.5481 161.926512,178.855588 160.070512,161.317947 C160.488974,160.868305 160.907435,160.415382 161.320974,159.941126 C171.695538,148.048613 180.581692,138.558562 191.213897,130.983588 C190.954615,138.212305 188.758923,148.366972 181.011641,160.077331 Z M47.4539791,173.802541 C47.4539791,173.802541 58.7261842,171.65608 70.229774,162.90449 C82.905056,170.064285 98.4636201,176.495464 116.416441,178.9209 C111.719825,194.489311 103.988953,201.0009 103.988953,201.0009 C68.5542868,196.701413 47.4539791,173.802541 47.4539791,173.802541 Z M24.6013842,26.0652696 C24.6013842,26.0652696 17.8994355,47.1130645 18.317897,66.2638337 C17.4629227,57.2939875 16.6801534,45.7346029 16.6801534,33.4876286 C16.6801534,26.731526 16.9394355,19.7752183 17.5318458,12.9387055 C23.2032304,14.3598337 35.274615,18.1817824 50.0914355,27.4699875 C55.1326663,30.6256798 60.0852816,33.1610645 64.7392304,35.2008593 C62.2744099,36.8861927 56.8015893,40.7836286 49.9896919,46.5846542 C39.0916406,35.0564491 24.6013842,26.0652696 24.6013842,26.0652696 Z M19.8931175,78.7776388 L19.7519893,78.9696388 C19.6830663,78.4609209 19.6141432,77.9243055 19.5419381,77.3450234 C19.6502458,77.830767 19.7716816,78.3033824 19.8931175,78.7776388 Z M203.723107,97.5132286 C203.723107,97.5132286 214.265056,102.830152 218.001671,108.941331 C218.001671,108.941331 213.011312,108.112613 206.048441,110.803895 C182.660543,87.7786645 169.504441,85.9374337 168.972748,85.8750747 L168.160441,85.7766132 L167.512235,86.2672798 C157.969671,93.4910747 153.012133,103.895177 150.386492,112.415382 C147.767415,120.950357 147.476953,127.676921 147.467107,127.790152 L147.376851,129.941536 L147.317774,130.10728 C147.317774,130.10728 148.146492,132.066664 149.495415,134.372305 C145.021979,135.309331 141.667723,138.222152 141.360851,141.93087 C141.193466,143.990357 141.995928,145.957947 143.463005,147.590767 C133.817056,147.416818 119.16762,145.603485 103.587723,138.051485 L100.939107,136.768203 C101.533159,135.43569 101.841671,133.650254 101.720235,131.297023 C106.653159,130.509331 112.070184,130.038357 117.992646,130.038357 C122.710594,130.038357 127.745261,130.335382 133.108133,131.004921 L139.163518,131.761434 L134.755723,127.542357 C134.732748,127.517741 126.601466,119.732716 115.549159,110.662767 C104.482082,101.589536 90.5579791,91.2395875 78.6523381,86.0293311 L77.8613637,85.6847157 L77.0671073,86.0145619 C77.0392099,86.0276901 66.233056,90.5257414 53.7300816,96.840408 C47.479415,99.9977414 40.8053637,103.607998 34.8238252,107.354459 C32.8020816,108.622972 30.8705945,109.906254 29.049056,111.192818 C23.2792099,108.609844 19.5918252,107.681023 19.5918252,107.681023 C22.4833124,100.695177 37.1934663,97.1210234 37.1934663,97.1210234 C36.4402355,92.2422542 26.4070047,90.4863568 26.4070047,90.4863568 C44.8701842,55.3831773 65.9081329,56.4137414 65.9081329,56.4137414 C66.3413637,51.1296388 60.729056,45.5140491 60.729056,45.5140491 C75.5179791,46.3001003 80.7676201,55.6785619 78.4029022,58.0875875 C82.6072099,53.8012286 80.1456714,43.9288183 80.1456714,43.9288183 C90.8681329,44.8116901 94.5555175,63.4717927 94.5555175,63.4717927 C96.8283381,59.269126 96.121056,48.8896388 96.121056,48.8896388 C126.448851,57.2276901 129.255005,102.605331 129.255005,102.605331 C133.936851,110.697229 142.425877,122.312408 142.425877,122.312408 C142.425877,122.312408 144.857877,111.926357 145.604543,103.137023 C145.604543,103.137023 140.78321,60.8133311 152.078389,50.8096388 C152.078389,50.8096388 151.768235,62.3870747 155.495005,66.2648183 C155.495005,66.2648183 157.410082,47.6785619 165.206594,44.3046132 C165.206594,44.3046132 163.19962,53.955485 164.980133,57.2276901 C164.980133,57.2276901 171.252133,43.461126 177.442082,40.8502542 C177.442082,40.8502542 175.226697,51.3774337 176.347518,54.147485 C176.347518,54.147485 198.795107,69.9390747 209.355107,91.1312798 C209.355107,91.1312798 203.969261,92.1798952 203.723107,97.5132286 Z M144.104646,156.937064 C138.779518,157.019116 133.592235,156.694193 133.592235,156.694193 L140.873466,158.924347 C140.873466,158.924347 140.829159,159.331321 140.768441,159.928654 C140.17603,160.320859 139.552441,160.681885 138.823825,160.990398 C136.770902,161.850295 133.895825,162.403321 129.410902,162.403321 C128.216235,162.403321 126.909979,162.363936 125.479005,162.281885 C121.117159,162.025885 117.748133,160.544039 115.005979,158.425475 L114.439825,157.943013 C114.907518,156.38568 115.411312,154.724962 115.411312,154.724962 L123.009261,155.37809 C123.009261,155.37809 113.597979,152.255218 107.874082,149.189782 C107.442492,148.298705 107.051928,147.419116 106.720441,146.575629 C106.274082,145.433475 105.922902,144.375013 105.640646,143.4265 C121.355107,150.231834 135.796133,151.644757 145.067928,151.646398 C146.525159,151.646398 147.844543,151.610295 149.032646,151.556141 C148.35162,152.222398 147.726389,152.873885 147.153671,153.499116 C145.988543,154.770911 145.021979,155.926193 144.104646,156.937064 Z M183.768071,129.535711 C172.669815,141.638275 157.295046,157.464326 151.802533,162.856736 C140.476174,173.973044 126.264892,172.281147 126.264892,172.281147 C126.264892,172.281147 114.167251,171.731403 99.7705329,166.304531 C89.3680714,162.384121 76.351456,149.8713 69.9334047,143.234993 C71.7795586,142.000941 73.983456,140.67007 76.5713534,139.340839 C82.4823278,136.304941 90.3477637,133.292018 100.248071,131.549249 C98.5676611,133.808941 95.2101227,137.452018 89.7651996,139.714993 C89.7651996,139.714993 97.1859175,142.412839 100.348174,137.813044 L100.710841,140.17448 C100.735456,140.307403 101.642943,146.325044 105.103866,152.647916 C106.83843,155.80689 109.226123,159.05448 112.529507,161.619403 C115.827969,164.184326 120.068379,166.025557 125.252379,166.316018 C126.748994,166.401352 128.130738,166.442377 129.410738,166.442377 C133.680687,166.442377 136.860994,165.98289 139.44561,165.075403 C141.380379,164.400941 142.954123,163.462275 144.288277,162.375916 C146.301815,160.739813 147.773815,158.854275 149.532994,156.891608 C150.995148,155.253864 152.660789,153.527505 154.976277,151.715813 C160.393302,151.305557 164.692789,148.108839 165.039046,143.881557 C165.439456,139.030685 160.4852,134.665557 153.970328,134.11089 C152.45402,132.893249 151.154328,131.436018 150.611148,129.798275 C158.064687,129.05489 164.91761,128.441147 171.207661,128.441147 C175.664687,128.441147 179.827969,128.772634 183.768071,129.535711 Z M69.2264509,103.825762 C64.3837842,107.447505 63.3893227,114.306993 67.0110663,119.1513 C70.6295278,123.997249 77.492297,124.988429 82.3349637,121.368326 C87.1792714,117.749864 88.1737329,110.887095 84.5519893,106.044429 C80.9335278,101.200121 74.0707586,100.205659 69.2264509,103.825762 Z M86.2356816,126.586788 C78.5080919,132.361557 67.5640919,130.777967 61.7926047,123.050377 C56.0178355,115.324429 57.5981432,104.380429 65.327374,98.6073003 C73.0549637,92.8341721 83.9989637,94.4161209 89.7737329,102.143711 C95.5452201,109.869659 93.9599893,120.813659 86.2356816,126.586788 Z M179.298574,122.715116 C184.142882,119.095013 185.137343,112.233885 181.518882,107.389577 C177.897138,102.546911 171.032728,101.552449 166.190061,105.172552 C161.345753,108.794295 160.354574,115.653782 163.973035,120.49809 C165.449959,122.472244 167.463497,123.79327 169.657548,124.436552 C166.291805,124.485782 162.817753,124.672859 159.220625,124.958398 L158.754574,124.397167 C152.979805,116.671218 154.565035,105.727218 162.292625,99.9540901 C170.018574,94.1809619 180.960933,95.7629106 186.735702,103.4905 C191.857343,110.345064 191.176318,119.725167 185.56401,125.787116 C182.341035,125.096244 179.027805,124.679423 175.591497,124.510398 C176.896112,124.160859 178.154779,123.571731 179.298574,122.715116 Z M73.393015,108.674336 C72.6611175,109.526029 71.3761945,109.62449 70.5277842,108.894234 C69.6728099,108.165618 69.5743483,106.882336 70.3046047,106.030644 C71.0332201,105.177311 72.3181432,105.078849 73.1698355,105.809105 C74.0248099,106.541003 74.1199893,107.821003 73.393015,108.674336 Z M167.268051,107.377762 C167.998307,106.524429 169.279948,106.425967 170.133282,107.156223 C170.986615,107.888121 171.081794,109.168121 170.35482,110.021454 C169.624564,110.873147 168.341282,110.971608 167.489589,110.241352 C166.636256,109.512736 166.539435,108.229454 167.268051,107.377762 Z" id="face--negative" fill="#FFFFFF"></path>
            <path d="M206.048441,110.804059 C213.011312,108.112777 218.001671,108.941495 218.001671,108.941495 C214.265056,102.830316 203.719825,97.5133927 203.719825,97.5133927 C203.969261,92.1784183 209.355107,91.133085 209.355107,91.133085 C198.795107,69.9392388 176.347518,54.1476491 176.347518,54.1476491 C175.226697,51.3775978 177.442082,40.8504183 177.442082,40.8504183 C171.252133,43.4612901 164.980133,57.2278542 164.980133,57.2278542 C163.196338,53.9556491 165.206594,44.3047773 165.206594,44.3047773 C157.410082,47.678726 155.495005,66.2649824 155.495005,66.2649824 C151.764953,62.3872388 152.078389,50.8081619 152.078389,50.8081619 C140.78321,60.8134952 145.604543,103.137188 145.604543,103.137188 C144.857877,111.926521 142.425877,122.312572 142.425877,122.312572 C142.425877,122.312572 133.936851,110.695752 129.255005,102.603854 C129.255005,102.603854 126.448851,57.2262132 96.121056,48.8898029 C96.121056,48.8898029 96.8283381,59.2692901 94.5555175,63.4719568 C94.5555175,63.4719568 90.8681329,44.8118542 80.1456714,43.9289824 C80.1456714,43.9289824 82.6072099,53.8013927 78.4029022,58.0861106 C80.7676201,55.678726 75.5179791,46.2986234 60.729056,45.5142132 C60.729056,45.5142132 66.3413637,51.1298029 65.9081329,56.4139055 C65.9081329,56.4139055 44.8701842,55.3833414 26.4070047,90.4865209 C26.4070047,90.4865209 36.4402355,92.2407773 37.1934663,97.1195465 C37.1934663,97.1195465 22.4833124,100.695341 19.5918252,107.681188 C19.5918252,107.681188 23.2792099,108.610008 29.049056,111.191341 C30.8705945,109.904777 32.8020816,108.623136 34.8238252,107.354623 C40.8053637,103.608162 47.479415,99.9979055 53.7333637,96.8405721 C66.233056,90.5259055 77.0392099,86.0278542 77.0671073,86.014726 L77.8613637,85.6832388 L78.6523381,86.0294952 C90.5579791,91.2397516 104.482082,101.5897 115.549159,110.662931 C126.601466,119.73288 134.732748,127.517905 134.759005,127.542521 L139.163518,131.761598 L133.108133,131.005085 C127.745261,130.335547 122.710594,130.038521 117.992646,130.038521 C112.070184,130.038521 106.653159,130.509495 101.720235,131.297188 C101.841671,133.650418 101.533159,135.435854 100.939107,136.768367 L103.587723,138.051649 C119.16762,145.603649 133.817056,147.416982 143.463005,147.590931 C141.995928,145.958111 141.193466,143.990521 141.360851,141.931034 C141.667723,138.222316 145.021979,135.309495 149.495415,134.37247 C148.146492,132.066829 147.317774,130.107444 147.317774,130.107444 L147.376851,129.9417 L147.467107,127.790316 C147.476953,127.677085 147.767415,120.950521 150.386492,112.415547 C153.012133,103.895341 157.969671,93.4912388 167.512235,86.2674439 L168.163723,85.7767773 L168.972748,85.8768798 C169.504441,85.9375978 182.660543,87.7788286 206.048441,110.804059 Z M148.532133,195.548264 C180.27121,183.87729 197.124543,150.2297 197.124543,150.2297 C193.031825,155.223341 181.011312,160.075854 181.011312,160.075854 C188.758594,148.367136 190.952646,138.210829 191.213569,130.983752 C180.581364,138.558726 171.69521,148.048777 161.320646,159.94129 C160.907107,160.415547 160.488646,160.86847 160.070184,161.318111 C161.926184,178.854111 148.532133,195.548264 148.532133,195.548264 Z M170.354492,110.02129 C171.081466,109.167957 170.986287,107.887957 170.132953,107.156059 C169.282902,106.425803 167.997979,106.524264 167.267723,107.377598 C166.539107,108.22929 166.635928,109.512572 167.489261,110.241188 C168.339312,110.971444 169.624235,110.872982 170.354492,110.02129 Z M181.515107,107.387444 C185.136851,112.233393 184.145671,119.094521 179.301364,122.714623 C178.154287,123.571239 176.89562,124.160367 175.591005,124.511547 C179.027312,124.678931 182.338902,125.094111 185.565159,125.786623 C191.175825,119.724675 191.858492,110.344572 186.73521,103.490008 C180.960441,95.7624183 170.018082,94.1788286 162.292133,99.9535978 C154.564543,105.728367 152.982594,116.672367 158.755723,124.398316 L159.220133,124.957905 C162.817261,124.672367 166.291312,124.48529 169.657056,124.4377 C167.463005,123.794418 165.449466,122.471752 163.972543,120.497598 C160.354082,115.654931 161.345261,108.793803 166.189569,105.172059 C171.032235,101.551957 177.896646,102.544777 181.515107,107.387444 Z M140.873466,158.923854 L133.592235,156.6937 C133.592235,156.6937 138.779518,157.020264 144.101364,156.936572 C145.021979,155.9257 145.988543,154.770418 147.153671,153.500264 C147.726389,152.875034 148.35162,152.223547 149.032646,151.555649 C147.844543,151.609803 146.525159,151.645905 145.064646,151.645905 C135.794492,151.644264 121.355107,150.231341 105.639005,143.426008 C105.922902,144.374521 106.274082,145.434623 106.720441,146.575136 C107.051928,147.418623 107.442492,148.299854 107.874082,149.190931 C113.597979,152.256367 123.00762,155.377598 123.00762,155.377598 L115.411312,154.72447 C115.411312,154.72447 114.907518,156.385188 114.439825,157.944162 L115.00762,158.426623 C117.748133,160.543547 121.113877,162.025393 125.479005,162.283034 C126.909979,162.363444 128.216235,162.402829 129.410902,162.402829 C133.895825,162.402829 136.770902,161.849803 138.823825,160.988264 C139.552441,160.683034 140.17603,160.320367 140.768441,159.929803 C140.829159,159.33247 140.873466,158.923854 140.873466,158.923854 Z M126.265056,172.280162 C126.265056,172.280162 140.476338,173.9737 151.801056,162.855752 C157.29521,157.463341 172.669979,141.63729 183.768235,129.536367 C179.826492,128.77329 175.66321,128.441803 171.207825,128.441803 C164.917774,128.441803 158.064851,129.053905 150.611312,129.79729 C151.154492,131.435034 152.454184,132.892264 153.970492,134.109905 C160.485364,134.666213 165.43962,139.031341 165.03921,143.880572 C164.689671,148.109495 160.393466,151.306213 154.976441,151.713188 C152.660953,153.528162 150.995312,155.254521 149.533159,156.890623 C147.773979,158.854931 146.301979,160.74047 144.288441,162.376572 C142.954287,163.46129 141.380543,164.401598 139.445774,165.076059 C136.861159,165.983547 133.67921,166.441393 129.410902,166.441393 C128.130902,166.441393 126.749159,166.400367 125.252543,166.315034 C120.066902,166.026213 115.826492,164.183341 112.529671,161.620059 C109.226287,159.053495 106.838594,155.807547 105.10403,152.648572 C101.643107,146.3257 100.73562,140.308059 100.711005,140.173495 L100.348338,137.8137 C97.1860816,142.410213 89.7653637,139.715649 89.7653637,139.715649 C95.2102868,137.452675 98.5678252,133.809598 100.248235,131.551547 C90.3479278,133.292675 82.4824919,136.303957 76.5715175,139.339854 C73.9819791,140.670726 71.7797227,142.001598 69.9335688,143.234008 C76.3516201,149.871957 89.3665945,162.384777 99.770697,166.303547 C114.164133,171.730418 126.265056,172.280162 126.265056,172.280162 Z M65.3272099,98.6079568 C57.6012611,104.381085 56.0176714,115.325085 61.7924406,123.051034 C67.5639278,130.776982 78.5079278,132.362213 86.2355175,126.587444 C93.9631073,120.814316 95.545056,109.870316 89.7752099,102.142726 C83.9987996,94.4151362 73.0547996,92.8331875 65.3272099,98.6079568 Z M103.989774,201.001393 C103.989774,201.001393 111.720646,194.488162 116.417261,178.919752 C98.4627996,176.494316 82.9042355,170.063136 70.2289534,162.904982 C58.7270047,171.656572 47.4531586,173.801393 47.4531586,173.801393 C47.4531586,173.801393 68.5551073,196.700264 103.989774,201.001393 Z M19.893774,78.7778029 C19.770697,78.3035465 19.6492611,77.8309311 19.5425945,77.3451875 C19.6147996,77.9244696 19.6837227,78.461085 19.7526458,78.9698029 L19.893774,78.7778029 Z M16.6806458,33.4887773 C16.6806458,45.7357516 17.463415,57.2934952 18.3216714,66.2633414 C17.8999278,47.1125721 24.6018765,26.0647773 24.6018765,26.0647773 C24.6018765,26.0647773 39.095415,35.0559568 49.9885432,46.5858029 C56.8020816,40.7847773 62.2749022,36.8857003 64.7397227,35.200367 C60.089056,33.1605721 55.1331586,30.6268286 50.0919278,27.4694952 C35.2751073,18.1829311 23.2037227,14.3593414 17.5323381,12.9382132 C16.9399278,19.776367 16.6806458,26.7310337 16.6806458,33.4887773 Z M159.53521,30.6186234 C157.713671,31.3324696 156.021774,32.0512388 154.380748,32.7732901 C158.919825,34.8475465 163.32762,37.1663157 167.564748,39.6688798 C179.805159,31.101085 194.727005,26.0647773 194.727005,26.0647773 C194.727005,26.0647773 198.903415,39.4735978 198.785261,54.5218029 C199.911005,48.509085 200.357364,42.4504183 200.3541,36.7626234 C200.357364,26.110726 198.860748,16.8175978 197.802287,11.586008 C191.098697,15.6655978 176.777466,23.8575978 159.53521,30.6186234 Z M219.061774,97.1228286 C227.785466,103.4457 228.538697,114.301085 228.538697,114.301085 C221.764543,116.070111 215.783005,118.083649 210.357774,120.363034 C204.167825,169.549495 162.219928,207.601598 111.354697,207.601598 C60.1202355,207.601598 17.9261842,168.99647 12.213774,119.293085 C5.95162011,119.194623 0.098081649,120.422111 0.098081649,120.422111 C2.78608165,108.895547 7.57951755,98.2173927 13.3985945,88.578008 C13.5774663,87.6655978 13.7776714,86.7597516 13.9795175,85.8539055 L14.0418765,85.8604696 L13.8285432,85.1318542 C13.813774,85.0268286 9.94915857,61.1006747 9.94587652,33.4887773 C9.94587652,25.3148286 10.2855688,16.8159568 11.1733637,8.49595676 C11.2718252,7.5901106 11.7362355,6.75318753 12.4566458,6.19523881 C13.177056,5.63564907 14.1042355,5.39113625 15.0084406,5.5224183 C15.354697,5.57493112 31.735415,8.02005932 53.6677227,21.7652901 C59.8707996,25.6578029 65.9606458,28.5492901 71.4515175,30.6990337 C73.9163381,29.248367 76.4139791,28.0635465 78.9099791,27.0937003 C75.1635175,25.1047773 71.2513124,23.8379055 71.2513124,23.8379055 C79.6008509,22.6924696 86.6080304,22.3577003 92.4993124,22.6350337 C85.2640304,19.2282645 75.7395175,16.3761619 63.2447483,14.5086747 C63.2447483,14.5086747 87.2545945,7.96590548 111.820748,9.19339266 C109.321466,6.31667471 106.589159,3.33164907 103.574594,0.236674707 C103.574594,0.236674707 140.722492,0.541905476 164.564953,21.248367 C183.344851,13.0678542 197.273877,3.9995465 198.133774,3.43175163 L198.173159,3.40385419 C199.074082,2.80652086 200.206389,2.67852086 201.217261,3.06087984 C202.229774,3.43995676 202.999415,4.28344394 203.281671,5.32549522 C203.324338,5.50436701 207.082287,19.2725721 207.088851,36.7626234 C207.085569,45.4567773 206.156748,55.0830337 203.304646,64.4401619 C203.048646,65.277085 202.758184,66.110726 202.469364,66.942726 C215.044543,79.5064183 222.99203,91.0986234 224.249056,95.9577003 C219.335825,95.5868286 219.061774,97.1228286 219.061774,97.1228286 Z M70.3049329,106.030808 C69.5746765,106.8825 69.6731381,108.165782 70.5281124,108.894398 C71.3765227,109.624654 72.6614458,109.526193 73.3900611,108.6745 C74.1203175,107.821167 74.021856,106.541167 73.1701637,105.80927 C72.3184714,105.079013 71.0319073,105.177475 70.3049329,106.030808 Z M82.3352919,121.367834 C77.4926252,124.987936 70.629856,123.996757 67.0113945,119.150808 C63.3896509,114.3065 64.3841124,107.447013 69.2267791,103.82527 C74.0710868,100.205167 80.933856,101.199629 84.5523175,106.043936 C88.1740611,110.886603 87.1795996,117.747731 82.3352919,121.367834 Z" id="face--positive" fill="#521C74"></path>
        </g>
    </g>
</svg>