<svg width="184" height="184" viewBox="0 0 184 184" fill="none" xmlns="http://www.w3.org/2000/svg">
<circle cx="100" cy="86" r="49" fill="#F0F0F0"/>
<circle cx="63" cy="142" r="12" fill="#F0F0F0"/>
<circle cx="112" cy="22" r="11" fill="#F0F0F0"/>
<circle cx="130" cy="32" r="5" fill="#F0F0F0"/>
<circle cx="51.5" cy="119.5" r="5.5" fill="#F0F0F0"/>
<circle cx="81.5" cy="158.5" r="5.5" fill="#F0F0F0"/>
<rect x="27.1968" y="34.2673" width="64.1511" height="68.5753" rx="2" transform="rotate(-7.98395 27.1968 34.2673)" fill="#9BD174"/>
<rect x="39.6958" y="80.9119" width="52.3532" height="15.4848" rx="4" transform="rotate(-7.98395 39.6958 80.9119)" fill="white"/>
<path d="M26.6557 30.4057C26.5023 29.3118 27.2647 28.3007 28.3585 28.1473L87.9266 19.7925C89.0205 19.6391 90.0316 20.4015 90.185 21.4953L94.516 52.3747L30.9867 61.285L26.6557 30.4057Z" fill="#521C74"/>
<rect x="37.6973" y="65.0889" width="42.7674" height="4.42422" rx="2.21211" transform="rotate(-7.98395 37.6973 65.0889)" fill="#B1DD91"/>
<rect x="38.7212" y="72.3909" width="30.2321" height="4.42422" rx="2.21211" transform="rotate(-7.98395 38.7212 72.3909)" fill="#B1DD91"/>
<rect x="45.0161" y="39.2131" width="30.2321" height="6.63632" rx="3.31816" transform="rotate(-7.98395 45.0161 39.2131)" fill="#6B2D92"/>
<path d="M58.8561 88.6492C58.8026 88.6567 58.7518 88.6448 58.7037 88.6133C58.6602 88.5757 58.6347 88.5301 58.6271 88.4766L57.896 83.2635C57.8877 83.2046 57.8997 83.1538 57.9319 83.1111C57.9634 83.063 58.0086 83.0348 58.0675 83.0265L60.5495 82.6784C61.2296 82.583 61.7552 82.6513 62.1262 82.8832C62.4973 83.1151 62.7189 83.488 62.791 84.0021C62.827 84.2592 62.7886 84.4912 62.6757 84.6981C62.5681 84.9043 62.4373 85.0619 62.2833 85.1708C62.5164 85.2364 62.7236 85.3712 62.9051 85.5751C63.0859 85.7736 63.1958 86.0121 63.2348 86.2905C63.3107 86.8314 63.1902 87.2769 62.8735 87.6271C62.5621 87.9766 62.0745 88.1978 61.4104 88.291L58.8561 88.6492ZM60.6929 84.9271C60.8911 84.8993 61.0362 84.8243 61.1282 84.7022C61.2203 84.5801 61.2543 84.4333 61.2303 84.262C61.207 84.096 61.1347 83.9696 61.0133 83.8829C60.8966 83.79 60.7364 83.7579 60.5329 83.7864L59.5289 83.9273L59.6889 85.0679L60.6929 84.9271ZM61.0897 87.2303C61.2985 87.201 61.4509 87.1195 61.5468 86.9859C61.6474 86.8463 61.6852 86.6881 61.6605 86.5113C61.6349 86.3293 61.555 86.1876 61.4207 86.0863C61.2856 85.9797 61.1163 85.9406 60.9128 85.9692L59.8364 86.1201L60.0133 87.3812L61.0897 87.2303Z" fill="#9BD174"/>
<path d="M66.7314 87.6266C65.971 87.7332 65.348 87.6322 64.8624 87.3236C64.3822 87.0142 64.0903 86.49 63.9866 85.751L63.527 82.4738C63.5187 82.4149 63.5307 82.364 63.5629 82.3213C63.5944 82.2732 63.6396 82.245 63.6985 82.2367L64.7989 82.0824C64.8579 82.0741 64.9091 82.0888 64.9525 82.1264C65.0006 82.1579 65.0288 82.2031 65.0371 82.262L65.4945 85.5231C65.541 85.8551 65.6536 86.0933 65.8322 86.2375C66.0161 86.3809 66.2554 86.432 66.5499 86.3907C66.8444 86.3494 67.0577 86.2349 67.1897 86.0471C67.3263 85.8532 67.3717 85.5929 67.3259 85.2663L66.8685 82.0051C66.8602 81.9462 66.8722 81.8954 66.9044 81.8526C66.9413 81.8038 66.9891 81.7752 67.048 81.767L68.1404 81.6137C68.1993 81.6055 68.2505 81.6201 68.294 81.6577C68.3421 81.6892 68.3703 81.7344 68.3786 81.7933L68.8382 85.0705C68.9419 85.8095 68.8054 86.3938 68.4288 86.8234C68.0523 87.253 67.4865 87.5207 66.7314 87.6266Z" fill="#9BD174"/>
<path d="M71.8251 86.8303C71.7715 86.8378 71.7207 86.8258 71.6726 86.7943C71.6291 86.7567 71.6036 86.7112 71.5961 86.6576L71.3561 84.9467L69.0162 81.753C68.9964 81.7285 68.9842 81.7002 68.9797 81.668C68.9737 81.6252 68.9845 81.5855 69.0121 81.5488C69.0444 81.5061 69.0819 81.4817 69.1247 81.4757L70.185 81.327C70.26 81.3165 70.3242 81.3266 70.3776 81.3573C70.4311 81.388 70.4715 81.4233 70.499 81.4631L71.8983 83.3227L72.732 81.1499C72.7474 81.1041 72.7766 81.0591 72.8195 81.0148C72.8624 80.9706 72.9214 80.9432 72.9964 80.9327L74.0566 80.784C74.0995 80.778 74.1396 80.7914 74.177 80.8244C74.219 80.8513 74.243 80.8861 74.249 80.929C74.2535 80.9611 74.2496 80.9917 74.2373 81.0207L72.8662 84.7349L73.1062 86.4458C73.1145 86.5047 73.0998 86.5559 73.0622 86.5994C73.03 86.6422 72.9844 86.6677 72.9255 86.6759L71.8251 86.8303Z" fill="#9BD174"/>
<rect x="102.388" y="78.7761" width="14.5551" height="2.02154" rx="1.01077" transform="rotate(-7.98395 102.388 78.7761)" fill="#9BD174"/>
<rect x="103.073" y="82.3093" width="8.78839" height="1.80937" rx="0.904687" transform="rotate(37.0161 103.073 82.3093)" fill="#9BD174"/>
<rect width="8.27143" height="1.80937" rx="0.904687" transform="matrix(0.602039 -0.798467 -0.798467 -0.602039 102.623 76.467)" fill="#9BD174"/>
<rect width="14.5551" height="2.02154" rx="1.01077" transform="matrix(-0.990307 0.138896 0.138896 0.990307 29.2749 89.0305)" fill="#9BD174"/>
<rect width="8.78839" height="1.80937" rx="0.904687" transform="matrix(-0.602039 0.798467 0.798467 0.602039 29.5874 92.6162)" fill="#9BD174"/>
<rect x="28.4131" y="86.875" width="8.27143" height="1.80937" rx="0.904687" transform="rotate(-142.984 28.4131 86.875)" fill="#9BD174"/>
<path fill-rule="evenodd" clip-rule="evenodd" d="M126.039 96.2911L168.106 111.942L124.268 123.6L82.3021 106.381L126.039 96.2911ZM125.219 125.573L167.989 114.199L165.352 154.882L165.384 154.884L121.063 173.567L79.5239 149.32L79.4924 149.318L82.129 108.635L123.073 125.435L120.88 159.275L123.026 159.414L125.219 125.573Z" fill="#67BFD3"/>
<rect x="142.99" y="150.694" width="16.1325" height="3.22649" rx="1.61325" transform="rotate(-21.7949 142.99 150.694)" fill="#339FB8"/>
<rect x="143.408" y="144.255" width="16.1325" height="3.22649" rx="1.61325" transform="rotate(-21.7949 143.408 144.255)" fill="#339FB8"/>
<rect x="135.76" y="147.432" width="6.34343" height="3.22649" rx="1.61325" transform="rotate(-21.7949 135.76 147.432)" fill="#339FB8"/>
<rect x="136.405" y="140.781" width="24.1227" height="3.22649" rx="1.61325" transform="rotate(-21.7949 136.405 140.781)" fill="#339FB8"/>
<path d="M112.43 106.74L134.741 115.865L114.711 120.75L112.889 148.869L90.7387 137.262L92.4254 111.236L112.43 106.74Z" fill="#A7DFEC"/>
</svg>
