<?xml version="1.0" encoding="UTF-8"?>
<svg width="285px" height="96px" viewBox="0 0 285 96" version="1.1" xmlns="http://www.w3.org/2000/svg" xmlns:xlink="http://www.w3.org/1999/xlink">
    <!-- Generator: Sketch 57.1 (83088) - https://sketch.com -->
    <title>logo-lockup--circle--watermark</title>
    <desc>Created with Sketch.</desc>
    <g id="logo-lockup--circle--watermark" stroke="none" stroke-width="1" fill="none" fill-rule="evenodd">
        <g id="logo-icon--circle--watermark" fill="#FFFFFF">
            <path d="M48,0 C74.509668,0 96,21.490332 96,48 C96,74.509668 74.509668,96 48,96 C21.490332,96 0,74.509668 0,48 C0,21.490332 21.490332,0 48,0 Z M68.0792285,62 L27.7276117,62 L27.6052993,62.1665071 C27.4869372,62.3305245 27.3811483,62.486627 27.2944361,62.630806 C27.0978884,62.9582697 27,63.4253439 27,64.0320287 L27,64.0320287 L27,71.1784836 L27.0068238,71.34693 C27.0432205,71.7879118 27.2252376,72.163311 27.5534165,72.4751811 C27.9233885,72.825304 28.3781458,73 28.9207715,73 L28.9207715,73 L68.0792285,73 L68.2781547,72.9923565 C68.7330144,72.9566801 69.1226653,72.7960662 69.4450419,72.5095355 C69.815014,72.1835338 70,71.7632401 70,71.2486544 L70,71.2486544 L70,63.8215164 L69.9931487,63.653456 C69.9566082,63.2132523 69.773906,62.8367703 69.4450419,62.5255499 C69.0766115,62.1754269 68.6203126,62 68.0792285,62 L68.0792285,62 Z M51.8494014,35 L51.8494014,35 L29.3636725,60.5309206 L29.233487,60.6926141 C29.1504852,60.798045 29.074259,60.8993332 29,61 L29,61 L45.9804801,61 L67.6887023,35.4019682 L67.8005553,35.2702572 C67.8714811,35.1814488 67.9360684,35.0908798 68,35 L68,35 Z M67.0966113,23 L29.8300639,23 L29.6544738,23.0065798 C29.1959593,23.0416694 28.8152288,23.2170847 28.5117457,23.5323058 C28.1703273,23.8869296 28,24.325212 28,24.8456724 L28,24.8456724 L28,32.2261408 L28.0085913,32.4007689 C28.0486803,32.8017566 28.2290444,33.1573984 28.5491719,33.4676942 C28.9150319,33.8223179 29.3412321,34 29.8300639,34 L29.8300639,34 L68.3706291,34 L68.5006406,33.797193 C68.8280036,33.2505546 69,32.6571843 69,32.0129223 L69,32.0129223 L69,24.8456724 L68.9932117,24.6752312 C68.9570103,24.2288487 68.776037,23.847527 68.4508281,23.5323058 C68.0849681,23.1776821 67.6327987,23 67.0966113,23 L67.0966113,23 Z" id="Combined-Shape"></path>
        </g>
        <g id="brand/zbay-logotype--black" transform="translate(120.000000, 15.000000)" fill="#FFFFFF">
            <path d="M133.45,20.3872 L145.446,48.9252 L156.268,20.3872 L164.103,20.3872 L140.584,77.7802 L132.742,77.7802 L141.605,57.0802 L125.608,20.3872 L133.45,20.3872 Z M57.2365,0 L57.2365,24.857 C58.6475,23.236 60.4145,21.953 62.5325,21.012 C64.6455,20.071 66.8525,19.602 69.1555,19.602 C72.6075,19.602 75.6515,20.518 78.2935,22.346 C80.9295,24.177 82.9575,26.621 84.3675,29.677 C85.7775,32.734 86.4865,36.042 86.4865,39.596 C86.4865,43.256 85.7145,46.612 84.1705,49.672 C82.6265,52.728 80.5395,55.147 77.8975,56.924 C75.2565,58.701 72.3465,59.591 69.1555,59.591 C66.8015,59.591 64.5295,59.106 62.3345,58.139 C60.1405,57.172 58.4425,55.826 57.2365,54.1 L56.4515,58.806 L50.1795,58.806 L50.1795,0 L57.2365,0 Z M107.3328,19.6018 C110.6258,19.6018 113.2548,20.1768 115.2138,21.3278 C117.1778,22.4768 118.6138,24.3848 119.5268,27.0518 C120.4388,29.7158 120.8988,33.3748 120.8988,38.0268 L120.8988,45.8688 C120.8988,47.9588 120.9878,49.5408 121.1738,50.6128 C121.3578,51.6848 121.7608,52.5088 122.3918,53.0828 C123.0168,53.6568 123.9808,53.9438 125.2888,53.9438 L125.9968,53.9438 L124.8988,59.5908 L124.3508,59.5908 C122.1558,59.5908 120.4268,59.3808 119.1758,58.9628 C117.9188,58.5448 116.9688,57.9448 116.3108,57.1598 C115.6598,56.3748 115.0478,55.3058 114.4728,53.9438 C111.2318,57.7088 107.3068,59.5908 102.7068,59.5908 C99.1528,59.5908 96.2938,58.5448 94.1248,56.4548 C91.9548,54.3648 90.8708,51.6978 90.8708,48.4558 C90.8708,43.5948 93.1678,40.1198 97.7678,38.0268 C102.3688,35.9368 107.7278,34.8398 113.8418,34.7348 C113.8418,31.2848 113.1778,28.9468 111.8438,27.7188 C110.5108,26.4908 108.3798,25.8748 105.4508,25.8748 C103.8298,25.8748 102.2088,26.1228 100.5938,26.6208 C98.9738,27.1158 97.2188,28.0178 95.3368,29.3238 L94.3218,23.5998 C95.8858,22.3998 97.8188,21.4328 100.1228,20.6998 C102.4198,19.9688 104.8248,19.6018 107.3328,19.6018 Z M41.789,3.9212 L11.913,52.0612 L41.399,52.0612 L41.399,58.8062 L-1.20792265e-13,58.8062 L29.715,10.6622 L3.529,10.6622 L3.529,3.9212 L41.789,3.9212 Z M113.8418,39.5958 C108.2008,39.8068 104.1618,40.5508 101.7298,41.8298 C99.2998,43.1128 98.0808,45.1898 98.0808,48.0638 C98.0808,50.0518 98.6168,51.5288 99.6888,52.4948 C100.7608,53.4618 102.2088,53.9438 104.0408,53.9438 C105.9228,53.9438 107.7408,53.4748 109.4898,52.5338 C111.2448,51.5928 112.6928,50.3388 113.8418,48.7688 L113.8418,39.5958 Z M68.2945,25.875 C65.0535,25.875 62.3345,27.065 60.1405,29.442 C57.9445,31.821 56.8475,35.207 56.8475,39.596 C56.8475,44.143 57.9325,47.569 60.1015,49.866 C62.2715,52.167 65.0025,53.318 68.2945,53.318 C71.5875,53.318 74.2415,51.998 76.2515,49.359 C78.2615,46.717 79.2705,43.466 79.2705,39.596 C79.2705,35.625 78.2615,32.345 76.2515,29.757 C74.2415,27.17 71.5875,25.875 68.2945,25.875 Z" id="Zbay-type"></path>
        </g>
    </g>
</svg>